<svg width="219" height="51" viewBox="0 0 219 51" fill="none" xmlns="http://www.w3.org/2000/svg">
<path d="M58.84 37L68.92 14.6H73.016L83.128 37H78.776L70.104 16.808H71.768L63.128 37H58.84ZM63.48 31.816L64.6 28.552H76.696L77.816 31.816H63.48ZM85.5928 37V19.912H89.5928V37H85.5928ZM87.6088 17.096C86.8621 17.096 86.2434 16.8613 85.7528 16.392C85.2834 15.9227 85.0488 15.3573 85.0488 14.696C85.0488 14.0133 85.2834 13.448 85.7528 13C86.2434 12.5307 86.8621 12.296 87.6088 12.296C88.3554 12.296 88.9634 12.52 89.4328 12.968C89.9234 13.3947 90.1688 13.9387 90.1688 14.6C90.1688 15.304 89.9341 15.9013 89.4648 16.392C88.9954 16.8613 88.3768 17.096 87.6088 17.096ZM94.8428 37V19.912H98.6508V24.616L98.2028 23.24C98.7148 22.088 99.5148 21.2133 100.603 20.616C101.712 20.0187 103.088 19.72 104.731 19.72V23.528C104.56 23.4853 104.4 23.464 104.251 23.464C104.101 23.4427 103.952 23.432 103.803 23.432C102.288 23.432 101.083 23.88 100.187 24.776C99.2908 25.6507 98.8428 26.9627 98.8428 28.712V37H94.8428ZM117.508 37V14.6H133.86V18.088H121.668V37H117.508ZM121.316 28.424V24.904H132.484V28.424H121.316ZM144.71 37.224C142.961 37.224 141.404 36.8507 140.038 36.104C138.673 35.336 137.596 34.2907 136.806 32.968C136.017 31.6453 135.622 30.1413 135.622 28.456C135.622 26.7493 136.017 25.2453 136.806 23.944C137.596 22.6213 138.673 21.5867 140.038 20.84C141.404 20.0933 142.961 19.72 144.71 19.72C146.481 19.72 148.049 20.0933 149.414 20.84C150.801 21.5867 151.878 22.6107 152.646 23.912C153.436 25.2133 153.83 26.728 153.83 28.456C153.83 30.1413 153.436 31.6453 152.646 32.968C151.878 34.2907 150.801 35.336 149.414 36.104C148.049 36.8507 146.481 37.224 144.71 37.224ZM144.71 33.8C145.692 33.8 146.566 33.5867 147.334 33.16C148.102 32.7333 148.7 32.1147 149.126 31.304C149.574 30.4933 149.798 29.544 149.798 28.456C149.798 27.3467 149.574 26.3973 149.126 25.608C148.7 24.7973 148.102 24.1787 147.334 23.752C146.566 23.3253 145.702 23.112 144.742 23.112C143.761 23.112 142.886 23.3253 142.118 23.752C141.372 24.1787 140.774 24.7973 140.326 25.608C139.878 26.3973 139.654 27.3467 139.654 28.456C139.654 29.544 139.878 30.4933 140.326 31.304C140.774 32.1147 141.372 32.7333 142.118 33.16C142.886 33.5867 143.75 33.8 144.71 33.8ZM157.655 37V19.912H161.463V24.616L161.015 23.24C161.527 22.088 162.327 21.2133 163.415 20.616C164.525 20.0187 165.901 19.72 167.543 19.72V23.528C167.373 23.4853 167.213 23.464 167.063 23.464C166.914 23.4427 166.765 23.432 166.615 23.432C165.101 23.432 163.895 23.88 162.999 24.776C162.103 25.6507 161.655 26.9627 161.655 28.712V37H157.655ZM170.937 37V19.912H174.745V24.456L174.073 23.112C174.649 22.0027 175.481 21.16 176.569 20.584C177.678 20.008 178.937 19.72 180.345 19.72C181.945 19.72 183.331 20.1147 184.505 20.904C185.699 21.6933 186.489 22.888 186.873 24.488L185.305 23.944C185.859 22.664 186.777 21.64 188.057 20.872C189.337 20.104 190.819 19.72 192.505 19.72C193.87 19.72 195.075 19.9867 196.121 20.52C197.187 21.0533 198.019 21.8747 198.617 22.984C199.214 24.072 199.513 25.48 199.513 27.208V37H195.513V27.72C195.513 26.2053 195.182 25.0747 194.521 24.328C193.859 23.5813 192.91 23.208 191.673 23.208C190.798 23.208 190.019 23.4 189.337 23.784C188.675 24.168 188.153 24.7333 187.769 25.48C187.406 26.2267 187.225 27.176 187.225 28.328V37H183.225V27.72C183.225 26.2053 182.894 25.0747 182.233 24.328C181.571 23.5813 180.622 23.208 179.385 23.208C178.51 23.208 177.731 23.4 177.049 23.784C176.387 24.168 175.865 24.7333 175.481 25.48C175.118 26.2267 174.937 27.176 174.937 28.328V37H170.937ZM209.904 37.224C208.475 37.224 207.099 37.0427 205.776 36.68C204.475 36.296 203.44 35.8373 202.672 35.304L204.208 32.264C204.976 32.7547 205.893 33.16 206.96 33.48C208.027 33.8 209.093 33.96 210.16 33.96C211.419 33.96 212.325 33.7893 212.88 33.448C213.456 33.1067 213.744 32.648 213.744 32.072C213.744 31.6027 213.552 31.2507 213.168 31.016C212.784 30.76 212.283 30.568 211.664 30.44C211.045 30.312 210.352 30.1947 209.584 30.088C208.837 29.9813 208.08 29.8427 207.312 29.672C206.565 29.48 205.883 29.2133 205.264 28.872C204.645 28.5093 204.144 28.0293 203.76 27.432C203.376 26.8347 203.184 26.0453 203.184 25.064C203.184 23.976 203.493 23.0373 204.112 22.248C204.731 21.4373 205.595 20.8187 206.704 20.392C207.835 19.944 209.168 19.72 210.704 19.72C211.856 19.72 213.019 19.848 214.192 20.104C215.365 20.36 216.336 20.7227 217.104 21.192L215.568 24.232C214.757 23.7413 213.936 23.4107 213.104 23.24C212.293 23.048 211.483 22.952 210.672 22.952C209.456 22.952 208.549 23.1333 207.952 23.496C207.376 23.8587 207.088 24.3173 207.088 24.872C207.088 25.384 207.28 25.768 207.664 26.024C208.048 26.28 208.549 26.4827 209.168 26.632C209.787 26.7813 210.469 26.9093 211.216 27.016C211.984 27.1013 212.741 27.24 213.488 27.432C214.235 27.624 214.917 27.8907 215.536 28.232C216.176 28.552 216.688 29.0107 217.072 29.608C217.456 30.2053 217.648 30.984 217.648 31.944C217.648 33.0107 217.328 33.9387 216.688 34.728C216.069 35.5173 215.184 36.136 214.032 36.584C212.88 37.0107 211.504 37.224 209.904 37.224Z" fill="#100F18"/>
<path d="M0 21.2497C0 9.51381 9.51382 0 21.2497 0V29.3539C21.2497 41.0898 11.7359 50.6036 0 50.6036V21.2497Z" fill="#A6E1FA"/>
<path d="M24.332 11.5469C24.332 5.16974 29.5018 0 35.879 0C42.2561 0 47.4259 5.16973 47.4259 11.5469V12.2136C47.4259 18.5908 42.2561 23.7605 35.879 23.7605C29.5018 23.7605 24.332 18.5908 24.332 12.2136V11.5469Z" fill="#A6E1FA"/>
<path d="M24.332 38.3897C24.332 32.0125 29.5018 26.8428 35.879 26.8428C42.2561 26.8428 47.4259 32.0125 47.4259 38.3897V39.0564C47.4259 45.4336 42.2561 50.6033 35.879 50.6033C29.5018 50.6033 24.332 45.4336 24.332 39.0564V38.3897Z" fill="#001C55"/>
</svg>
