<svg width="234" height="51" viewBox="0 0 234 51" fill="none" xmlns="http://www.w3.org/2000/svg">
<path d="M10.2599 38.3018L19.0135 10.9465H27.4937L36.2083 38.3018H30.62L23.3122 14.19H23.195L15.77 38.3018H10.2599ZM14.6758 30.5641L16.0435 26.4218H29.9947L31.3625 30.5641H14.6758ZM38.4327 38.3018V18.9186H43.7084V38.3018H38.4327ZM41.051 16.4566C40.1131 16.4566 39.3315 16.17 38.7063 15.5969C38.1071 15.0237 37.8075 14.3073 37.8075 13.4475C37.8075 12.5878 38.1071 11.8844 38.7063 11.3373C39.3055 10.7641 40.0871 10.4776 41.051 10.4776C42.015 10.4776 42.7965 10.7641 43.3958 11.3373C44.021 11.8844 44.3336 12.5878 44.3336 13.4475C44.3336 14.3073 44.021 15.0237 43.3958 15.5969C42.7965 16.17 42.015 16.4566 41.051 16.4566ZM47.539 38.3018V18.9186H52.0722L52.5021 23.1391H52.6584C53.2315 21.8104 53.8568 20.8074 54.5342 20.13C55.2115 19.4527 55.9801 19.0098 56.8398 18.8014C57.7256 18.5669 58.7286 18.4497 59.8489 18.4497V24.0379H58.403C57.5172 24.0379 56.7226 24.1422 56.0192 24.3506C55.3157 24.5329 54.7296 24.8456 54.2606 25.2885C53.7917 25.7053 53.4269 26.2654 53.1664 26.9689C52.9319 27.6723 52.8147 28.519 52.8147 29.509V38.3018H47.539ZM61.8929 38.3018V10.9465H79.7129V15.2061H67.1686V22.5139H77.2509V26.6562H67.1686V38.3018H61.8929ZM90.2725 38.7707C88.3967 38.7707 86.7033 38.3408 85.1922 37.4811C83.7072 36.6214 82.5218 35.4229 81.636 33.8858C80.7502 32.3487 80.3073 30.5902 80.3073 28.6102C80.3073 26.6041 80.7502 24.8456 81.636 23.3345C82.5218 21.7974 83.7202 20.599 85.2313 19.7393C86.7423 18.8795 88.4358 18.4497 90.3116 18.4497C92.1873 18.4497 93.8677 18.8795 95.3527 19.7393C96.8638 20.599 98.0492 21.7974 98.9089 23.3345C99.7947 24.8456 100.238 26.6041 100.238 28.6102C100.238 30.6162 99.7947 32.3878 98.9089 33.9249C98.0492 35.436 96.8638 36.6214 95.3527 37.4811C93.8417 38.3408 92.1483 38.7707 90.2725 38.7707ZM90.2725 34.3157C91.1062 34.3157 91.8617 34.1073 92.5391 33.6904C93.2425 33.2736 93.8026 32.6483 94.2194 31.8147C94.6623 30.9549 94.8838 29.8868 94.8838 28.6102C94.8838 27.3336 94.6754 26.2785 94.2585 25.4448C93.8417 24.585 93.2816 23.9468 92.5781 23.5299C91.9008 23.1131 91.1452 22.9047 90.3116 22.9047C89.4779 22.9047 88.7093 23.1131 88.0059 23.5299C87.3025 23.9468 86.7423 24.585 86.3255 25.4448C85.9087 26.2785 85.7002 27.3336 85.7002 28.6102C85.7002 29.8868 85.9087 30.9549 86.3255 31.8147C86.7423 32.6483 87.3025 33.2736 88.0059 33.6904C88.7093 34.1073 89.4648 34.3157 90.2725 34.3157ZM102.914 38.3018V18.9186H107.447L107.877 23.1391H108.033C108.606 21.8104 109.231 20.8074 109.909 20.13C110.586 19.4527 111.355 19.0098 112.214 18.8014C113.1 18.5669 114.103 18.4497 115.223 18.4497V24.0379H113.778C112.892 24.0379 112.097 24.1422 111.394 24.3506C110.69 24.5329 110.104 24.8456 109.635 25.2885C109.166 25.7053 108.801 26.2654 108.541 26.9689C108.306 27.6723 108.189 28.519 108.189 29.509V38.3018H102.914ZM117.072 38.3018V18.9186H121.683L122.152 22.1231H122.309C122.882 20.8986 123.702 19.9868 124.771 19.3875C125.839 18.7623 127.076 18.4497 128.483 18.4497C129.473 18.4497 130.372 18.5799 131.18 18.8404C131.987 19.101 132.704 19.5178 133.329 20.091C133.954 20.6381 134.475 21.3545 134.892 22.2403H135.048C135.752 21.0419 136.651 20.117 137.745 19.4657C138.839 18.7883 140.207 18.4497 141.848 18.4497C143.359 18.4497 144.662 18.8014 145.756 19.5048C146.85 20.1822 147.697 21.1852 148.296 22.5139C148.895 23.8425 149.195 25.4839 149.195 27.4378V38.3018H143.958V27.9068C143.958 26.2915 143.646 25.054 143.02 24.1943C142.395 23.3345 141.405 22.9047 140.05 22.9047C139.191 22.9047 138.435 23.1 137.784 23.4908C137.159 23.8556 136.664 24.4157 136.299 25.1712C135.96 25.9007 135.791 26.8256 135.791 27.9458V38.3018H130.515V27.9068C130.515 26.2915 130.203 25.054 129.577 24.1943C128.952 23.3345 127.975 22.9047 126.646 22.9047C125.839 22.9047 125.109 23.1261 124.458 23.569C123.833 23.9858 123.325 24.5981 122.934 25.4057C122.543 26.1873 122.348 27.1512 122.348 28.2975V38.3018H117.072ZM160.388 38.7707C158.668 38.7707 157.144 38.4841 155.815 37.911C154.487 37.3378 153.432 36.5562 152.65 35.5662C151.869 34.5502 151.4 33.4039 151.243 32.1273H156.519C156.649 32.5962 156.871 33.0391 157.183 33.456C157.496 33.8728 157.913 34.2115 158.434 34.472C158.955 34.7065 159.58 34.8237 160.31 34.8237C161.013 34.8237 161.586 34.7325 162.029 34.5502C162.472 34.3418 162.798 34.0812 163.006 33.7686C163.24 33.456 163.358 33.1173 163.358 32.7525C163.358 32.2575 163.188 31.8798 162.85 31.6193C162.537 31.3327 162.068 31.0852 161.443 30.8768C160.844 30.6683 160.127 30.4469 159.294 30.2124C158.46 29.9779 157.6 29.7304 156.714 29.4699C155.829 29.2094 155.021 28.8837 154.291 28.4929C153.588 28.0761 153.015 27.555 152.572 26.9298C152.129 26.2785 151.908 25.4708 151.908 24.5069C151.908 23.3866 152.22 22.3706 152.845 21.4587C153.471 20.5469 154.37 19.8174 155.542 19.2703C156.74 18.7232 158.173 18.4497 159.841 18.4497C162.159 18.4497 164.009 18.9837 165.39 20.0519C166.797 21.12 167.617 22.592 167.852 24.4678H162.889C162.759 23.8165 162.42 23.3085 161.873 22.9437C161.352 22.579 160.661 22.3966 159.802 22.3966C158.89 22.3966 158.186 22.579 157.691 22.9437C157.222 23.2824 156.988 23.6993 156.988 24.1943C156.988 24.559 157.144 24.8716 157.457 25.1322C157.795 25.3927 158.264 25.6141 158.864 25.7965C159.463 25.9789 160.192 26.1873 161.052 26.4218C162.459 26.7865 163.722 27.1773 164.843 27.5941C165.989 28.011 166.901 28.5841 167.578 29.3136C168.256 30.017 168.594 31.02 168.594 32.3227C168.62 33.5732 168.295 34.6804 167.617 35.6444C166.966 36.6083 166.015 37.3769 164.765 37.95C163.54 38.4972 162.081 38.7707 160.388 38.7707Z" fill="#001C55"/>
<path d="M186.025 21.2497C186.025 9.51381 195.539 0 207.275 0V29.3539C207.275 41.0898 197.761 50.6036 186.025 50.6036V21.2497Z" fill="#A6E1FA"/>
<path d="M210.357 11.5469C210.357 5.16974 215.527 0 221.904 0C228.282 0 233.451 5.16973 233.451 11.5469V12.2136C233.451 18.5908 228.282 23.7605 221.904 23.7605C215.527 23.7605 210.357 18.5908 210.357 12.2136V11.5469Z" fill="#A6E1FA"/>
<path d="M210.357 38.3902C210.357 32.013 215.527 26.8433 221.904 26.8433C228.282 26.8433 233.451 32.013 233.451 38.3902V39.0568C233.451 45.434 228.282 50.6038 221.904 50.6038C215.527 50.6038 210.357 45.434 210.357 39.0569V38.3902Z" fill="#001C55"/>
</svg>
