<svg width="570" height="722" viewBox="0 0 570 722" fill="none" xmlns="http://www.w3.org/2000/svg">
<path d="M129.204 324.235L203.395 398.241C222.723 339.265 244.798 323.088 254.531 318.697C264.327 326.29 312.619 337.081 337.538 340.348L393.113 452.03C396.035 457.935 397.692 464.407 397.971 471.016C398.251 477.629 397.148 484.222 394.735 490.362C377.26 533.515 355.942 574.947 331.049 614.133C300.585 609.818 274.843 597.161 259.609 570.193C286.198 532.436 308.484 496.622 323.997 464.044L298.893 421.977L299.947 380.693C284.576 413.059 257.772 445.849 236.97 468.431C230.426 475.505 221.513 479.809 211.999 480.486C202.489 481.168 193.072 478.174 185.626 472.099C149.445 442.685 114.817 411.977 80.3993 381.257C83.213 368.35 89.1558 356.369 97.6785 346.408C106.205 336.447 117.044 328.824 129.204 324.235Z" fill="#0E6BA8"/>
<path fill-rule="evenodd" clip-rule="evenodd" d="M435.14 124.311L463.206 112.994C470.354 117.828 478.316 121.275 486.692 123.16C527.668 132.509 568.626 104.186 568.997 63.6855C569.328 29.4533 539.81 1.421 502.995 1.04249C466.25 0.686692 436.161 28.0869 435.775 62.4099C435.677 74.3942 439.253 86.1105 446.001 95.9229L435.14 124.311ZM491.283 49.8995C490.309 50.3113 489.424 50.9146 488.679 51.6754C487.933 52.4355 487.34 53.3378 486.937 54.3314C486.533 55.3246 486.325 56.3894 486.325 57.4647C486.325 58.54 486.533 59.6048 486.937 60.598C487.34 61.5916 487.933 62.4939 488.679 63.254L502.079 76.8462L515.479 63.254C516.985 61.7184 517.831 59.6362 517.831 57.4647C517.831 55.2932 516.985 53.2107 515.479 51.6754C513.973 50.1402 511.931 49.2776 509.802 49.2776C507.672 49.2776 505.63 50.1402 504.124 51.6754L502.079 53.761L500.034 51.6754C499.288 50.9146 498.403 50.3113 497.429 49.8995C496.455 49.4877 495.411 49.2757 494.356 49.2757C493.302 49.2757 492.257 49.4877 491.283 49.8995Z" fill="#A6E1FA"/>
<path d="M328.439 173.286C328.106 174.943 327.94 176.63 327.946 178.32L324.07 170.697C325.452 171.686 326.913 172.552 328.439 173.286Z" fill="#727272"/>
<path d="M338.525 335.31C340.429 344.947 345.648 341.28 349.598 331.067C345.997 332.714 342.298 334.131 338.525 335.31Z" fill="#727272"/>
<path d="M344.025 296.627C345.767 297.071 347.578 297.146 349.349 296.848C351.12 296.551 352.813 295.887 354.322 294.897C352.7 285.681 348.045 287.494 344.025 296.627Z" fill="#727272"/>
<path d="M389.163 196.156L408.981 229.238C409.148 229.495 409.207 229.81 409.147 230.112C409.087 230.414 408.911 230.68 408.66 230.85C408.408 231.021 408.1 231.083 407.803 231.023C407.507 230.962 407.245 230.785 407.077 230.529L384.72 199.177C384.507 198.88 384.355 198.542 384.273 198.184C384.192 197.825 384.182 197.454 384.245 197.092C384.308 196.729 384.442 196.384 384.64 196.076C384.837 195.768 385.094 195.504 385.394 195.3C385.694 195.095 386.032 194.956 386.387 194.888C386.741 194.821 387.106 194.827 387.458 194.907C387.81 194.987 388.143 195.139 388.436 195.354C388.729 195.568 388.976 195.841 389.163 196.156Z" fill="#100F18"/>
<path d="M287.679 403.056L298.964 421.898L300.021 380.618C296.287 388.309 292.171 395.8 287.679 403.056Z" fill="#727272"/>
<path d="M116.509 317.116L124.408 326.325C109.586 332.962 97.2478 344.281 89.2151 358.612C83.8291 354.67 77.8157 351.703 71.4423 349.838C50.2025 341.335 30.0131 330.329 11.2826 317.044C31.8765 310.072 95.2805 315.246 116.509 317.116Z" fill="#100F18"/>
<path d="M278.294 592.771C290.97 602.832 305.859 609.596 321.672 612.477L319.129 616.576C314.545 623.839 313.981 631.822 313.279 640.452C310.67 663.575 305.439 686.312 297.689 708.205C285.699 689.658 274.344 625.861 270.677 604.429L278.294 592.771Z" fill="#100F18"/>
<path d="M276.123 107.699C276.123 92.4526 286.557 73.0352 301.579 73.0352C316.535 73.0352 329.508 87.8499 331.346 102.737C331.818 106.615 331.249 110.551 329.701 114.126C334.16 114.614 338.346 116.554 341.64 119.658C344.933 122.762 347.159 126.865 347.986 131.359L346.156 131.287C346.675 136.375 346.916 141.487 346.876 146.602C343.851 119.16 328.421 129.505 323.658 140.205C322.545 134.596 319.709 130.64 316.39 130.64H306.45C305.373 130.681 304.337 131.057 303.48 131.719C303.58 131.246 303.688 130.795 303.799 130.349C288.962 130.197 276.123 122.79 276.123 107.699Z" fill="#100F18"/>
<path d="M276.123 107.698C276.123 92.4516 286.557 73.0342 301.579 73.0342C316.535 73.0342 329.508 87.8489 331.346 102.736C331.818 106.614 331.249 110.55 329.701 114.125C334.16 114.613 338.346 116.553 341.64 119.657C344.933 122.761 347.159 126.864 347.986 131.358L346.156 131.286C346.675 136.374 346.916 141.486 346.876 146.601C343.851 119.159 328.421 129.504 323.658 140.204C322.545 134.595 319.709 130.639 316.39 130.639H306.45C305.373 130.68 304.337 131.056 303.48 131.718C303.58 131.245 303.688 130.794 303.799 130.348C288.962 130.196 276.123 122.789 276.123 107.698Z" stroke="#100F18" stroke-width="2" stroke-linejoin="round"/>
<path d="M328.439 173.286C326.903 172.573 325.439 171.706 324.07 170.697L327.946 178.32" stroke="#100F18" stroke-width="2" stroke-linecap="round" stroke-linejoin="round"/>
<path d="M355.803 328.05L351.36 342.286L416.104 324.238L451.791 218.881L384.367 236.644L372.871 273.465" fill="white"/>
<path d="M355.803 328.05L351.36 342.286L416.104 324.238L451.791 218.881L384.367 236.644L372.871 273.465" stroke="#100F18" stroke-width="2" stroke-linecap="round" stroke-linejoin="round"/>
<path d="M315.395 160.125C315.073 166.277 313.663 172.319 311.234 177.96C308.91 183.511 305.002 188.222 300.02 191.481C294.174 195.088 273.428 194.785 265.18 210.179C257.7 224.127 249.315 269.582 245.506 296.191C244.734 301.597 245.814 307.108 248.565 311.796C251.315 316.484 255.566 320.063 260.599 321.929C286.917 331.378 314.206 337.745 341.936 340.908" stroke="#100F18" stroke-width="2" stroke-linecap="round" stroke-linejoin="round"/>
<path d="M323.635 140.205C328.498 129.273 343.709 117.403 346.2 147.109C346.971 153.42 346.685 159.82 345.354 166.034C342.254 177.685 333.646 175.815 328.427 173.298C328.094 174.954 327.928 176.641 327.934 178.332C327.689 181.519 328.502 184.698 330.241 187.358C331.981 190.019 334.546 192.006 337.525 193.003C342.188 194.642 362.395 196.511 372.295 221.266C375.551 229.389 377.514 239.173 381.182 246.868" stroke="#100F18" stroke-width="2" stroke-linecap="round" stroke-linejoin="round"/>
<path d="M301.431 249.949L295.648 279.651L350.867 288.856" stroke="#100F18" stroke-width="2" stroke-linecap="round" stroke-linejoin="round"/>
<path d="M344.026 296.627C347.163 297.297 350.428 296.918 353.336 295.544C358.272 292.308 361.873 284.102 365.748 273.25C371.316 257.777 372.096 264.332 372.731 270.222C373.306 273.152 371.483 290.336 378.443 286.331C387.379 277.985 397.086 270.542 407.43 264.105C420.645 257.107 421.461 260.933 411.379 270.362C408.281 273.242 405.338 276.291 402.564 279.495C399.186 283.364 396.053 287.447 393.183 291.721C388.915 298.716 381.053 311.926 371.461 318.618C361.3 325.719 350.214 331.334 338.525 335.299" fill="#FFE4D9" fill-opacity="0.45"/>
<path d="M344.026 296.627C347.163 297.297 350.428 296.918 353.336 295.544C358.272 292.308 361.873 284.102 365.748 273.25C371.316 257.777 372.096 264.332 372.731 270.222C373.306 273.152 371.483 290.336 378.443 286.331C387.379 277.985 397.086 270.542 407.43 264.105C420.645 257.107 421.461 260.933 411.379 270.362C408.281 273.242 405.338 276.291 402.564 279.495C399.186 283.364 396.053 287.447 393.183 291.721C388.915 298.716 381.053 311.926 371.461 318.618C361.3 325.719 350.214 331.334 338.525 335.299" stroke="#100F18" stroke-width="2" stroke-linecap="round" stroke-linejoin="round"/>
<path d="M382.181 308.201C386.412 300.866 399.189 293.25 405.299 287.573C409.467 283.697 417.374 278.11 421.943 274.052C423.075 273.049 422.648 270.313 413.974 274.196C412.047 275.067 405.418 278.08 402.437 279.647" fill="#FFE4D9" fill-opacity="0.45"/>
<path d="M382.181 308.201C386.412 300.866 399.189 293.25 405.299 287.573C409.467 283.697 417.374 278.11 421.943 274.052C423.075 273.049 422.648 270.313 413.974 274.196C412.047 275.067 405.418 278.08 402.437 279.647" stroke="#100F18" stroke-width="2" stroke-linecap="round" stroke-linejoin="round"/>
<path d="M405.804 287.111C407.33 286.687 408.64 286.354 409.334 286.195C418.503 283.822 418.506 286.63 417.233 287.418C412.096 290.597 403.325 294.87 398.614 297.989C391.699 302.059 385.139 306.726 379.008 311.941" fill="#FFE4D9" fill-opacity="0.45"/>
<path d="M405.804 287.111C407.33 286.687 408.64 286.354 409.334 286.195C418.503 283.822 418.506 286.63 417.233 287.418C412.096 290.597 403.325 294.87 398.614 297.989C391.699 302.059 385.139 306.726 379.008 311.941" stroke="#100F18" stroke-width="2" stroke-linecap="round" stroke-linejoin="round"/>
<path d="M354.312 294.824C352.998 287.474 349.728 287.22 346.413 292.175C339.88 301.906 335.278 328.277 339.361 338.269C341.684 343.973 346.131 340.052 349.598 331.078" stroke="#100F18" stroke-width="2" stroke-linecap="round" stroke-linejoin="round"/>
<path d="M422.169 226.72L425.766 213.415L415.539 215.932L413.212 229.093" stroke="#100F18" stroke-width="2" stroke-linecap="round" stroke-linejoin="round"/>
<path d="M359.33 239.521C359.33 239.521 360.729 259.472 352.841 273.965L345.224 287.916" stroke="#100F18" stroke-width="2" stroke-linecap="round" stroke-linejoin="round"/>
<path d="M337.651 340.431L393.182 451.958C396.108 457.863 397.766 464.335 398.045 470.944C398.325 477.557 397.22 484.15 394.804 490.29C377.352 533.455 356.033 574.89 331.118 614.062C300.654 609.747 274.912 597.089 259.678 570.121C286.267 532.365 308.553 496.55 324.065 463.972L287.688 403.059C272.811 426.405 255.832 448.291 236.979 468.431C230.435 475.501 221.523 479.805 212.009 480.483C202.499 481.164 193.082 478.17 185.636 472.099C149.47 442.666 114.826 411.977 80.409 381.257C83.2078 368.346 89.1433 356.358 97.6659 346.395C106.192 336.432 117.035 328.812 129.203 324.235L203.483 398.184C222.785 339.258 244.867 323.084 254.6 318.697" stroke="#100F18" stroke-width="2" stroke-linecap="round" stroke-linejoin="round"/>
<path d="M298.962 421.897L299.949 380.617C296.267 388.324 292.173 395.814 287.677 403.055" fill="#001C55"/>
<path d="M298.962 421.897L299.949 380.617C296.267 388.324 292.173 395.814 287.677 403.055" stroke="#100F18" stroke-width="2" stroke-linecap="round" stroke-linejoin="round"/>
<path d="M116.508 317.115C95.3496 315.253 32.3652 310.109 11.4594 317.035" stroke="#100F18" stroke-width="2" stroke-linecap="round" stroke-linejoin="round"/>
<path d="M124.479 326.324L107.905 307.122C74.1926 301.297 19.6751 300.074 1.00025 309.495C21.4606 324.745 47.7709 341.259 71.4569 349.836C77.8304 351.702 83.84 354.67 89.2298 358.61" stroke="#100F18" stroke-width="2" stroke-linecap="round" stroke-linejoin="round"/>
<path d="M278.438 592.698L263.416 615.496C266.519 650.231 279.355 704.312 293.111 720.206C303.379 694.687 310.164 667.851 313.282 640.451C313.976 631.821 314.548 623.838 319.132 616.574L321.73 612.411" stroke="#100F18" stroke-width="2" stroke-linecap="round" stroke-linejoin="round"/>
<path d="M413.988 224.562C413.988 224.562 402.704 221.254 393.465 234.271" stroke="#100F18" stroke-width="2" stroke-linecap="round" stroke-linejoin="round"/>
<path d="M348.538 196.371C349.338 196.891 349.952 197.658 350.292 198.561C350.631 199.463 350.678 200.453 350.426 201.384C350.173 202.316 349.634 203.141 348.889 203.737C348.143 204.334 347.229 204.671 346.281 204.698C345.495 204.694 344.724 204.471 344.053 204.053C343.381 203.635 342.835 203.037 342.473 202.325C345.021 200.985 347.129 198.916 348.538 196.371Z" fill="white" stroke="#100F18" stroke-width="2" stroke-linecap="round" stroke-linejoin="round"/>
<path d="M342.686 204.138C342.689 205.167 342.336 206.166 341.689 206.956C341.042 207.747 340.142 208.279 339.148 208.46C338.154 208.641 337.129 208.459 336.254 207.945C335.379 207.431 334.709 206.619 334.363 205.652C337.082 204.711 339.743 203.606 342.333 202.344C342.584 202.906 342.705 203.52 342.686 204.138Z" fill="white" stroke="#100F18" stroke-width="2" stroke-linecap="round" stroke-linejoin="round"/>
<path d="M334.574 206.95C334.577 208.034 334.188 209.081 333.482 209.891C332.776 210.702 331.802 211.219 330.747 211.343C329.691 211.468 328.626 211.191 327.758 210.567C326.889 209.942 326.276 209.013 326.037 207.957C328.855 207.401 331.636 206.656 334.359 205.728C334.505 206.118 334.577 206.533 334.574 206.95Z" fill="white" stroke="#100F18" stroke-width="2" stroke-linecap="round" stroke-linejoin="round"/>
<path d="M326.323 208.597C326.364 209.747 325.956 210.867 325.189 211.712C324.421 212.556 323.358 213.057 322.23 213.104C321.102 213.152 320.002 212.743 319.169 211.965C318.336 211.188 317.839 210.107 317.786 208.957C320.629 208.814 323.456 208.454 326.246 207.878C326.234 208.086 326.323 208.381 326.323 208.597Z" fill="white" stroke="#100F18" stroke-width="2" stroke-linecap="round" stroke-linejoin="round"/>
<path d="M317.719 208.957C317.719 210.089 317.283 211.175 316.505 211.983C315.726 212.79 314.668 213.253 313.558 213.272C312.979 213.278 312.407 213.16 311.873 212.926C311.342 212.692 310.867 212.347 310.473 211.913C310.084 211.479 309.783 210.966 309.597 210.408C309.412 209.849 309.345 209.256 309.397 208.669C312.159 208.98 314.942 209.076 317.719 208.957Z" fill="white" stroke="#100F18" stroke-width="2" stroke-linecap="round" stroke-linejoin="round"/>
<path d="M304.956 212.249C304.288 212.247 303.631 212.087 303.033 211.783C302.435 211.479 301.916 211.038 301.511 210.495C301.11 209.952 300.836 209.322 300.709 208.653C300.587 207.984 300.617 207.295 300.795 206.64C303.519 207.582 306.333 208.233 309.188 208.581C309.02 209.603 308.501 210.531 307.729 211.202C306.953 211.873 305.973 212.244 304.956 212.249Z" fill="white" stroke="#100F18" stroke-width="2" stroke-linecap="round" stroke-linejoin="round"/>
<path d="M296.845 209.459C296.092 209.46 295.353 209.26 294.703 208.878C294.05 208.496 293.508 207.947 293.13 207.284C292.751 206.622 292.55 205.869 292.547 205.102C292.543 204.336 292.736 203.582 293.107 202.915C295.557 204.458 298.156 205.735 300.865 206.727C300.527 207.531 299.967 208.218 299.254 208.703C298.542 209.188 297.703 209.451 296.845 209.459Z" fill="white" stroke="#100F18" stroke-width="2" stroke-linecap="round" stroke-linejoin="round"/>
<path d="M287.888 195.652C286.894 195.963 286.044 196.624 285.487 197.518C284.93 198.411 284.704 199.478 284.848 200.526C284.989 201.575 285.498 202.537 286.274 203.239C287.053 203.941 288.048 204.338 289.087 204.358C289.819 204.42 290.554 204.324 291.248 204.076C291.942 203.828 292.573 203.434 293.107 202.92C290.754 201.023 288.95 198.512 287.888 195.652Z" fill="white" stroke="#100F18" stroke-width="2" stroke-linecap="round" stroke-linejoin="round"/>
<path d="M311.304 156.746C306.26 164.634 298.609 158.04 298.609 145.39C298.609 132.805 306.308 126.155 311.304 134.035C313.138 137.528 314.098 141.429 314.098 145.39C314.098 149.352 313.138 153.253 311.304 156.746Z" fill="#EDF5FE" stroke="#100F18" stroke-width="2" stroke-linecap="round" stroke-linejoin="round"/>
<path d="M306.368 130.567H316.308C320.625 130.567 324.078 137.222 324.066 145.382C324.055 153.543 320.611 160.144 316.308 160.144H306.995" stroke="#100F18" stroke-width="2" stroke-linecap="round" stroke-linejoin="round"/>
<path d="M348.046 131.43C351.431 131.574 354.605 138.406 354.185 146.533C353.758 154.3 350.232 160.538 346.216 160.844C347.337 151.046 347.29 141.145 346.078 131.358L348.046 131.43Z" stroke="#100F18" stroke-width="2" stroke-linecap="round" stroke-linejoin="round"/>
<path d="M346.848 130.927C346.15 126.857 344.013 123.19 340.841 120.618C337.67 118.047 333.685 116.751 329.639 116.975C325.563 116.846 321.561 118.116 318.276 120.58C314.991 123.044 312.612 126.561 311.517 130.567" stroke="#100F18" stroke-width="2" stroke-linecap="round" stroke-linejoin="round"/>
<path d="M488.676 51.6038C489.421 50.843 490.307 50.2397 491.281 49.8279C492.255 49.4161 493.299 49.2041 494.353 49.2041C495.408 49.2041 496.452 49.4161 497.426 49.8279C498.4 50.2397 499.286 50.843 500.031 51.6038L502.076 53.7613L504.121 51.6038C505.627 50.0686 507.67 49.206 509.799 49.206C511.928 49.206 513.971 50.0686 515.476 51.6038C516.982 53.1391 517.828 55.2216 517.828 57.3931C517.828 59.5646 516.982 61.6471 515.476 63.1824L502.076 76.8465L488.676 63.1824C487.93 62.4223 487.338 61.52 486.934 60.5264C486.531 59.5332 486.323 58.4684 486.323 57.3931C486.323 56.3178 486.531 55.253 486.934 54.2598C487.338 53.2662 487.93 52.3639 488.676 51.6038Z" stroke="#100F18" stroke-width="2" stroke-linecap="round" stroke-linejoin="round"/>
<path d="M463.204 112.994L435.138 124.311L446 95.9229C439.251 86.1108 435.675 74.3941 435.773 62.4099C436.159 28.0868 466.248 0.686692 502.993 1.04249C539.808 1.421 569.326 29.4532 568.995 63.6854C568.624 104.186 527.666 132.509 486.69 123.16C478.314 121.275 470.352 117.828 463.204 112.994Z" stroke="#100F18" stroke-width="2" stroke-linecap="round" stroke-linejoin="round"/>
<path d="M105.366 338.689L145.566 377.021" stroke="#100F18" stroke-width="2" stroke-linecap="round" stroke-linejoin="round"/>
<path d="M282.741 595.503L312.645 548.326" stroke="#100F18" stroke-width="2" stroke-linecap="round" stroke-linejoin="round"/>
<path d="M279.285 340.344C273.855 344.37 267.678 347.224 261.13 348.733C254.582 350.241 247.8 350.372 241.2 349.118" stroke="#100F18" stroke-width="2" stroke-linecap="round" stroke-linejoin="round"/>
<path d="M387.246 44.2441V52.6167" stroke="#100F18" stroke-width="2" stroke-linecap="round" stroke-linejoin="round"/>
<path d="M371.274 60.5352H379.484" stroke="#100F18" stroke-width="2" stroke-linecap="round" stroke-linejoin="round"/>
<path d="M387.246 76.8218V68.4492" stroke="#100F18" stroke-width="2" stroke-linecap="round" stroke-linejoin="round"/>
<path d="M403.223 60.5352H395.008" stroke="#100F18" stroke-width="2" stroke-linecap="round" stroke-linejoin="round"/>
<path d="M379.484 60.5346C380.504 60.5346 381.514 60.3302 382.457 59.9328C383.399 59.5353 384.255 58.9524 384.976 58.2181C385.697 57.48 386.269 56.6095 386.658 55.6481C387.048 54.6867 387.248 53.6571 387.246 52.6162C387.244 53.6571 387.444 54.6867 387.833 55.6481C388.222 56.6095 388.794 57.4838 389.515 58.2181C390.236 58.9524 391.092 59.5391 392.035 59.9365C392.977 60.334 393.988 60.5346 395.008 60.5346C393.988 60.5346 392.978 60.7352 392.036 61.1326C391.094 61.5301 390.237 62.1129 389.516 62.851C388.795 63.5853 388.223 64.4559 387.834 65.4173C387.444 66.3787 387.245 67.4082 387.246 68.4491C387.247 67.4082 387.047 66.3787 386.657 65.4173C386.268 64.4597 385.696 63.5853 384.975 62.851C384.254 62.1167 383.398 61.5338 382.456 61.1364C381.514 60.739 380.504 60.5346 379.484 60.5346Z" fill="#0E6BA8" stroke="#100F18" stroke-width="2" stroke-linecap="round" stroke-linejoin="round"/>
<path d="M270.68 604.421C274.333 625.772 285.617 689.165 297.555 707.988" stroke="#100F18" stroke-width="2" stroke-linecap="round" stroke-linejoin="round"/>
</svg>
